<?xml version="1.0" standalone="no"?>
<!DOCTYPE svg PUBLIC "-//W3C//DTD SVG 20010904//EN"
 "http://www.w3.org/TR/2001/REC-SVG-20010904/DTD/svg10.dtd">
<svg version="1.0" xmlns="http://www.w3.org/2000/svg"
 width="1600.000000pt" height="1200.000000pt" viewBox="0 0 1600.000000 1200.000000"
 preserveAspectRatio="xMidYMid meet">

<g transform="translate(0.000000,1200.000000) scale(0.100000,-0.100000)"
fill="#000000" stroke="none">
<path d="M4865 9413 c-275 -32 -511 -149 -702 -346 -137 -142 -222 -282 -277
-457 -59 -186 -57 -65 -53 -2657 l3 -2378 21 -85 c105 -421 388 -734 773 -855
184 -57 71 -55 2620 -55 2572 0 2444 -3 2630 60 167 55 309 143 436 267 105
102 173 195 233 318 84 171 114 292 115 457 1 124 -10 147 -84 185 -40 21 -58
23 -196 23 -162 0 -203 -8 -246 -48 -32 -30 -44 -64 -52 -152 -11 -119 -59
-231 -136 -322 -49 -57 -158 -131 -237 -161 l-58 -22 -2369 -3 c-2613 -2
-2417 -7 -2553 60 -75 37 -186 141 -226 211 -14 27 -37 76 -49 110 l-23 62 0
2380 0 2380 32 80 c69 170 209 294 386 341 43 11 439 14 2388 14 1640 0 2353
-3 2394 -11 96 -18 190 -71 275 -158 103 -104 160 -224 160 -339 0 -69 19
-128 56 -170 54 -64 82 -72 246 -72 132 0 147 2 188 24 26 13 58 42 75 67 29
43 30 47 29 154 -3 273 -119 541 -327 754 -188 193 -419 308 -682 340 -64 8
-776 11 -2425 9 -1284 0 -2348 -3 -2365 -5z"/>
<path d="M7119 7722 c-31 -16 -68 -46 -86 -71 -53 -69 -65 -130 -61 -299 3
-139 4 -149 30 -194 16 -25 46 -62 69 -82 79 -67 70 -66 698 -66 432 0 572 -3
591 -13 53 -26 60 -61 60 -310 0 -245 -6 -283 -52 -309 -19 -10 -251 -14
-1233 -18 l-1210 -5 -48 -25 c-57 -29 -102 -76 -131 -139 -18 -41 -21 -64 -21
-201 0 -137 2 -160 21 -200 28 -59 86 -117 143 -144 l46 -21 2223 -5 2224 -5
24 -28 24 -28 0 -260 0 -261 -29 -29 c-16 -16 -40 -29 -53 -29 -13 0 -421 -1
-908 -2 -840 -3 -887 -4 -925 -22 -64 -29 -109 -70 -141 -128 -28 -51 -29 -59
-32 -199 -4 -165 3 -206 51 -276 26 -36 50 -56 102 -83 l68 -35 1407 0 1407 0
68 35 c52 26 76 47 101 83 46 67 54 103 54 254 0 109 -4 142 -21 188 -24 65
-78 122 -145 155 -48 24 -58 24 -357 30 l-309 5 -24 28 c-24 28 -24 28 -24
277 0 156 4 258 11 273 24 53 9 52 639 57 l585 5 48 25 c56 28 122 96 144 148
21 48 30 257 14 334 -17 78 -71 153 -141 192 l-55 31 -1595 5 c-1270 4 -1600
8 -1617 18 -48 27 -53 54 -53 306 0 129 4 246 10 260 5 14 24 35 42 46 33 20
51 20 1316 20 883 0 1296 3 1326 11 63 16 136 75 171 139 30 55 30 55 30 220
0 150 -2 169 -22 206 -28 53 -87 109 -143 137 l-45 22 -2106 3 -2106 2 -54
-28z"/>
</g>
</svg>
