<?xml version="1.0" standalone="no"?>
<!DOCTYPE svg PUBLIC "-//W3C//DTD SVG 20010904//EN"
 "http://www.w3.org/TR/2001/REC-SVG-20010904/DTD/svg10.dtd">
<svg version="1.0" xmlns="http://www.w3.org/2000/svg"
 width="2400.000000pt" height="2000.000000pt" viewBox="0 0 2400.000000 2000.000000"
 preserveAspectRatio="xMidYMid meet">

<g transform="translate(0.000000,2000.000000) scale(0.100000,-0.100000)"
fill="#000000" stroke="none">
<path d="M12195 16442 c-22 -11 -50 -30 -62 -43 -57 -62 -102 -230 -89 -331
l7 -49 -161 3 c-88 2 -160 2 -160 0 0 -1 -29 -253 -65 -559 -36 -306 -65 -562
-65 -570 0 -11 -77 -13 -421 -13 -396 0 -420 -1 -415 -17 2 -10 13 -109 22
-220 l18 -203 952 0 952 0 6 -47 c4 -27 26 -253 50 -503 25 -250 167 -1701
316 -3225 150 -1523 376 -3834 504 -5135 l232 -2365 -3233 -3 -3234 -2 -57 29
c-76 39 -153 114 -184 181 -14 30 -33 98 -43 150 -9 52 -19 103 -22 113 -4 15
4 17 66 17 39 0 71 1 71 3 0 1 -115 430 -255 952 l-256 950 -159 1625 c-88
894 -177 1801 -199 2015 -21 215 -37 391 -36 392 1 2 28 -7 61 -19 49 -19 80
-22 184 -22 107 0 133 3 182 23 93 37 174 96 222 164 48 69 627 991 653 1040
l16 31 -72 66 c-39 36 -71 70 -71 75 0 6 26 70 58 144 l58 135 49 11 c64 14
148 54 205 96 25 18 70 45 100 60 76 37 150 119 150 166 0 13 -3 23 -7 23 -3
0 -29 -18 -58 -40 -51 -39 -111 -67 -121 -57 -3 3 10 27 29 54 51 69 78 146
84 234 7 95 -8 149 -41 149 -26 0 -50 -17 -151 -105 -38 -34 -84 -71 -100 -82
-31 -22 -138 -57 -154 -51 -5 2 13 41 40 88 69 120 65 135 -22 80 -110 -72
-175 -171 -207 -319 -17 -78 -21 -85 -100 -180 -105 -126 -118 -137 -135 -122
-11 9 -71 -51 -303 -304 l-289 -314 -202 207 c-120 123 -203 215 -203 227 -1
11 -67 695 -148 1520 l-148 1500 -346 3 -346 2 4 -37 c13 -105 233 -2378 231
-2380 -2 -1 -27 4 -57 12 -30 8 -138 24 -240 36 -102 11 -195 24 -206 29 -18
7 -23 20 -29 79 -8 76 -15 88 -60 93 -32 3 -35 10 -49 144 -7 61 -7 61 24 74
36 15 87 71 106 116 21 51 17 131 -11 199 -19 46 -25 78 -25 138 0 70 3 83 29
120 22 32 41 46 78 59 196 69 166 318 -37 318 -34 0 -72 -8 -99 -20 -44 -20
-45 -20 -65 -1 -75 68 -204 69 -274 1 l-24 -22 -48 26 c-83 45 -186 30 -249
-37 -19 -21 -29 -24 -57 -20 -45 7 -117 -21 -148 -58 -69 -81 -52 -205 35
-258 17 -11 43 -38 56 -61 l25 -42 -25 -26 c-34 -37 -47 -65 -47 -102 0 -103
102 -175 195 -136 21 9 40 14 43 12 2 -3 1 -98 -3 -211 -6 -178 -10 -207 -24
-212 -41 -12 -46 -21 -54 -91 -7 -53 -13 -72 -25 -76 -10 -3 -100 -24 -201
-46 -101 -23 -208 -52 -237 -65 -78 -34 -164 -96 -221 -158 -80 -88 -297 -464
-468 -812 -222 -450 -316 -739 -319 -971 -1 -109 0 -112 37 -187 85 -171 310
-441 659 -789 246 -245 224 -206 232 -423 3 -77 13 -282 21 -455 8 -173 17
-416 20 -540 3 -124 10 -292 15 -375 18 -277 28 -502 55 -1165 3 -74 8 -164
10 -200 3 -36 7 -146 10 -245 3 -99 8 -200 10 -225 2 -25 7 -124 10 -220 3
-96 8 -204 10 -240 2 -36 7 -139 10 -230 3 -91 8 -194 10 -230 2 -36 7 -132
10 -215 3 -82 8 -183 11 -222 l6 -73 62 0 62 0 22 -162 c12 -90 22 -182 22
-206 0 -41 -96 -466 -119 -524 l-11 -28 -1215 0 -1215 0 0 -24 0 -24 8798 -6
c4838 -4 9556 -7 10485 -9 l1687 -2 0 28 0 27 -969 0 -968 0 -7 40 c-13 85
-32 113 -129 188 -51 39 -143 123 -205 185 l-113 114 -47 -8 c-99 -15 -239
-89 -291 -152 -13 -16 -19 -14 -86 22 l-73 39 -11 -61 c-5 -34 -20 -131 -32
-214 l-22 -153 -502 0 -502 0 -6 99 c-11 159 -48 341 -71 341 -7 0 -79 -32
-160 -71 -81 -39 -153 -68 -160 -66 -7 3 -61 37 -121 76 -93 62 -110 70 -124
58 -9 -7 -43 -36 -76 -64 -76 -63 -131 -95 -220 -123 -140 -45 -302 -142 -361
-215 l-29 -36 -1347 7 c-1230 7 -1348 9 -1348 23 0 9 -74 772 -165 1696 -90
924 -257 2623 -370 3775 -113 1152 -225 2300 -250 2550 -85 864 -295 3010
-295 3015 0 3 41 5 90 5 79 0 90 2 90 18 0 9 -9 91 -20 182 -11 91 -20 168
-20 173 0 4 -40 7 -90 7 -53 0 -90 4 -90 10 0 21 -61 637 -66 668 l-5 32 -668
0 -668 0 -17 143 c-9 78 -16 145 -16 150 0 4 1175 7 2610 7 l2610 0 0 20 c0
11 -20 194 -45 406 -25 211 -45 391 -45 399 0 12 -32 15 -192 17 l-191 3 -22
85 c-41 160 -122 281 -220 326 -81 38 -142 30 -203 -29 -68 -65 -102 -167
-102 -308 0 -106 -18 -101 -47 13 -41 161 -120 279 -218 324 -81 38 -142 30
-203 -29 -68 -65 -102 -164 -102 -299 0 -67 -3 -88 -13 -88 -9 0 -20 28 -30
78 -34 157 -122 292 -222 338 -62 29 -106 30 -163 3 -88 -43 -142 -169 -142
-331 0 -114 -19 -121 -43 -14 -34 158 -124 297 -222 342 -62 29 -106 30 -162
3 -90 -43 -143 -164 -143 -325 0 -74 -3 -94 -14 -94 -9 0 -20 26 -31 78 -34
156 -118 287 -217 336 -63 32 -108 33 -166 5 -90 -44 -142 -163 -142 -325 0
-125 -18 -128 -48 -6 -40 162 -115 277 -214 326 -115 57 -217 12 -277 -125
-24 -53 -42 -187 -34 -246 5 -35 3 -43 -10 -43 -10 0 -19 11 -22 28 -32 155
-72 246 -143 321 -82 87 -168 111 -252 69 -90 -45 -143 -166 -144 -325 0 -67
-4 -93 -13 -93 -7 0 -15 12 -19 28 -33 150 -72 243 -131 312 -73 85 -180 119
-258 82z m131 -68 c44 -21 87 -71 124 -144 27 -53 59 -161 60 -198 0 -10 -42
-12 -192 -10 l-193 3 -3 68 c-5 121 38 239 102 278 38 23 58 24 102 3z m600
-19 c67 -51 131 -178 150 -294 l7 -41 -194 2 -194 3 -3 68 c-2 39 4 94 13 129
39 152 127 205 221 133z m564 7 c68 -50 139 -185 155 -295 l7 -47 -193 2 -194
3 -3 58 c-9 172 72 318 168 303 19 -3 46 -14 60 -24z m543 15 c68 -29 140
-139 172 -262 26 -103 42 -95 -174 -95 -211 0 -201 -3 -201 72 0 120 42 237
100 276 38 25 58 27 103 9z m576 -1 c41 -22 100 -92 128 -153 28 -60 53 -146
53 -180 l0 -23 -189 0 c-211 0 -201 -4 -201 74 0 117 46 242 103 276 38 24 68
25 106 6z m570 0 c66 -35 136 -142 165 -253 29 -112 44 -103 -174 -103 l-189
0 -7 36 c-10 55 11 178 41 240 41 84 100 112 164 80z m570 0 c82 -43 181 -222
181 -328 l0 -28 -189 0 -190 0 -6 43 c-9 59 11 172 41 235 40 82 100 110 163
78z m583 -8 c70 -40 152 -189 165 -300 l6 -48 -190 0 -190 0 -7 39 c-9 59 11
179 40 238 26 55 72 93 113 93 13 0 41 -10 63 -22z m-12454 -6125 l52 -198
-117 -347 -116 -346 -113 179 c-62 98 -118 188 -124 199 -10 18 14 68 171 365
100 190 185 345 188 345 3 0 30 -89 59 -197z m1141 -287 c28 -30 23 -68 -13
-91 -28 -19 -69 -7 -85 24 -16 29 -14 39 14 66 31 32 55 32 84 1z m-307 -1439
c44 -48 84 -84 90 -81 6 4 23 -8 39 -27 26 -31 28 -33 46 -18 50 45 113 25
113 -35 0 -43 -19 -60 -46 -42 -10 7 -32 21 -49 31 l-30 19 32 -35 c17 -19 48
-51 68 -73 20 -21 34 -44 31 -51 -2 -7 40 -65 95 -129 l100 -115 -33 -30 c-18
-17 -83 -75 -145 -128 -74 -65 -110 -103 -107 -113 3 -8 272 -791 599 -1740
l593 -1725 71 -725 c39 -399 71 -735 71 -747 l0 -23 -566 0 c-535 0 -566 1
-559 18 25 59 3 115 -79 197 -51 51 -123 91 -383 211 -89 41 -158 103 -189
169 -21 45 -24 64 -24 188 l0 137 75 0 c41 0 75 3 75 8 0 32 81 3420 86 3605
4 130 4 237 1 237 -3 0 -95 -79 -203 -175 -109 -96 -201 -172 -205 -167 -3 4
-97 111 -209 237 -111 127 -245 279 -298 339 -54 59 -97 112 -97 116 0 5 86
85 191 178 159 141 194 168 211 161 31 -11 35 -24 13 -44 -27 -24 -25 -31 14
-58 19 -12 66 -62 105 -109 39 -47 78 -88 87 -92 8 -3 47 -6 86 -6 l70 0 -4
125 -4 124 26 -6 c14 -3 49 -22 78 -41 29 -19 55 -32 59 -28 12 12 -25 136
-62 212 -43 88 -98 150 -148 166 -22 7 -40 16 -40 19 -1 4 50 53 113 108 l115
102 24 -28 c13 -15 59 -67 103 -116z"/>
<path d="M4944 9936 c-12 -31 0 -51 31 -51 27 0 30 3 30 30 0 25 -4 30 -28 33
-17 2 -29 -2 -33 -12z"/>
<path d="M4936 8373 c-12 -12 -6 -33 9 -33 8 0 15 6 15 14 0 17 -14 28 -24 19z"/>
<path d="M6025 16085 c-14 -13 -25 -32 -25 -43 0 -20 34 -62 50 -62 7 0 9
-253 8 -697 l-3 -698 -237 -3 -238 -2 0 539 c0 521 1 540 19 546 10 3 24 19
31 36 11 27 10 34 -7 57 -26 34 -65 40 -92 13 -28 -28 -26 -67 4 -95 l25 -23
0 -537 0 -536 -235 0 -235 0 0 586 0 587 25 23 c30 28 32 67 4 95 -27 27 -66
21 -92 -13 -17 -23 -18 -30 -7 -57 7 -17 21 -33 31 -36 18 -6 19 -26 19 -596
l0 -589 -237 2 -238 3 -3 440 -2 440 24 20 c38 31 43 69 12 99 -30 31 -59 33
-86 6 -27 -27 -25 -66 5 -94 l25 -23 0 -447 0 -446 -235 0 -235 0 0 336 0 337
25 23 c46 42 23 114 -36 114 -32 0 -46 -10 -57 -40 -12 -31 0 -65 27 -80 21
-10 21 -18 21 -351 l0 -339 -237 2 -238 3 -3 408 -2 409 31 29 c26 24 30 34
24 56 -10 43 -25 54 -64 51 -26 -2 -39 -10 -50 -29 -18 -32 -8 -75 19 -84 20
-6 20 -15 20 -426 l0 -419 -235 0 -235 0 0 276 0 276 26 20 c35 28 31 86 -8
108 -25 13 -31 13 -55 0 -40 -22 -44 -80 -9 -108 l26 -20 0 -276 0 -276 -130
0 c-80 0 -130 -4 -130 -10 0 -7 577 -10 1710 -10 1133 0 1710 3 1710 10 0 6
-35 10 -85 10 l-85 0 0 696 0 696 25 20 c25 19 33 60 17 84 -9 13 -46 34 -62
34 -6 0 -22 -11 -35 -25z"/>
<path d="M8474 15323 c2 -10 10 -80 17 -155 l12 -138 619 0 618 0 0 35 c0 27
-5 38 -22 45 -24 9 -1205 230 -1233 230 -11 0 -15 -6 -11 -17z"/>
<path d="M6520 14660 l0 -220 521 0 521 0 -6 23 c-3 13 -12 97 -21 187 -8 91
-18 180 -21 198 l-5 32 -494 0 -495 0 0 -220z"/>
<path d="M14935 14718 c2 -13 12 -88 20 -168 9 -80 18 -155 21 -167 l4 -23
250 0 c247 0 250 0 250 21 0 19 -22 216 -36 317 l-5 42 -255 0 -254 0 5 -22z"/>
<path d="M13640 14143 c0 -16 9 -100 20 -188 11 -88 20 -161 20 -162 0 -2 114
-3 253 -3 l253 0 -23 188 c-12 103 -22 188 -23 190 0 1 -112 2 -250 2 l-250 0
0 -27z"/>
<path d="M15070 13573 c0 -10 9 -90 20 -178 11 -88 20 -166 20 -172 0 -10 58
-13 255 -13 l255 0 -6 43 c-3 23 -13 107 -23 187 l-16 145 -252 3 c-236 2
-253 1 -253 -15z"/>
<path d="M7837 13029 c-15 -11 -32 -37 -38 -59 -10 -32 -9 -44 7 -76 11 -21
32 -47 47 -58 28 -21 39 -21 783 -24 672 -2 758 -1 785 13 29 16 59 66 59 101
0 31 -34 87 -64 105 -30 18 -65 19 -792 19 -753 0 -762 0 -787 -21z m1562 -14
c26 -13 61 -67 61 -95 0 -24 -30 -67 -55 -78 -19 -9 -213 -12 -763 -12 -713 0
-738 1 -769 20 -66 40 -79 118 -26 160 25 20 39 20 775 20 636 0 753 -2 777
-15z"/>
<path d="M13773 12983 c3 -21 13 -107 23 -190 l17 -153 255 0 254 0 -5 33 c-3
17 -14 103 -23 190 l-18 157 -254 0 -255 0 6 -37z"/>
<path d="M12423 12875 c-12 -8 -112 -124 -224 -257 -111 -134 -206 -247 -211
-253 -5 -6 -82 64 -196 178 -173 173 -190 187 -223 187 -45 0 -69 -25 -69 -71
0 -32 19 -53 228 -262 235 -234 252 -247 295 -214 9 6 126 144 261 306 266
319 271 327 221 376 -28 29 -51 31 -82 10z"/>
<path d="M7884 12631 c-69 -42 -63 -155 10 -201 33 -20 43 -20 1307 -20 1405
0 1300 -5 1335 62 29 57 -1 129 -68 164 -23 12 -225 14 -1290 14 -1228 0
-1264 -1 -1294 -19z m2608 -38 c44 -44 46 -104 5 -139 l-28 -24 -1265 0
c-1399 0 -1305 -5 -1338 65 -26 55 -7 109 44 128 8 3 585 5 1282 4 l1268 -2
32 -32z"/>
<path d="M18072 12585 c-235 -53 -352 -218 -262 -370 37 -63 37 -86 0 -180
-36 -92 -39 -154 -9 -268 25 -99 21 -154 -19 -237 l-28 -60 243 0 243 0 0 35
c0 34 -1 35 -36 35 -62 0 -117 22 -160 65 -51 51 -61 91 -69 260 -6 122 -14
179 -29 216 -6 12 4 18 47 28 104 23 233 97 329 189 l37 35 6 -29 c20 -86 30
-115 61 -174 19 -36 48 -80 65 -98 l31 -33 18 28 c42 68 118 101 169 73 55
-29 76 -113 46 -188 -12 -30 -13 -45 -5 -67 8 -22 7 -33 -4 -51 -23 -34 -53
-40 -87 -15 -15 12 -30 21 -32 21 -3 0 11 -51 30 -112 18 -62 41 -137 49 -165
l15 -53 241 0 241 0 -21 23 c-34 36 -52 92 -52 163 0 106 -15 140 -96 220 -83
81 -92 96 -132 225 -48 156 -87 223 -177 314 -88 88 -151 125 -270 157 -95 26
-298 33 -383 13z"/>
<path d="M13840 12428 c0 -13 9 -97 20 -188 11 -91 20 -166 20 -167 0 -2 114
-3 253 -3 l253 0 -18 158 c-10 86 -20 172 -23 190 l-6 32 -249 0 -250 0 0 -22z"/>
<path d="M7953 12243 c-32 -6 -72 -51 -79 -89 -8 -41 19 -99 59 -128 28 -21
30 -21 1590 -24 859 -2 1582 0 1606 3 62 9 101 49 101 105 0 53 -22 95 -63
117 -30 17 -122 18 -1612 19 -869 1 -1590 -1 -1602 -3z m3166 -19 c18 -4 45
-20 62 -36 38 -38 40 -94 5 -135 l-24 -28 -1559 -3 c-857 -2 -1578 0 -1602 3
-78 12 -127 83 -100 146 25 62 -69 58 1630 59 856 0 1571 -3 1588 -6z"/>
<path d="M18243 12093 c-27 -5 -50 -31 -37 -42 5 -4 53 -6 107 -3 84 4 97 7
97 22 0 10 -7 21 -16 24 -17 6 -115 6 -151 -1z"/>
<path d="M18018 12049 c-32 -12 -42 -33 -23 -49 10 -8 19 -8 34 -1 11 6 42 11
70 11 53 0 70 12 51 35 -14 17 -90 19 -132 4z"/>
<path d="M18655 12048 c-48 -26 -82 -69 -99 -125 -14 -44 19 -23 42 28 24 51
42 56 42 13 0 -14 6 -24 15 -24 12 0 13 9 9 44 -6 38 -4 44 15 49 22 6 29 27
9 27 -7 0 -22 -6 -33 -12z"/>
<path d="M18272 11978 c-28 -28 -3 -72 39 -66 29 4 49 35 31 47 -8 4 -13 12
-13 17 2 14 -43 16 -57 2z"/>
<path d="M18048 11949 c-11 -6 -18 -22 -18 -39 0 -23 5 -31 25 -36 47 -12 73
36 39 70 -18 19 -23 19 -46 5z"/>
<path d="M18157 11923 c-11 -10 -8 -82 3 -104 12 -21 63 -26 90 -9 13 8 13 10
0 14 -8 2 -26 4 -40 3 -23 -2 -25 1 -28 51 -3 49 -10 61 -25 45z"/>
<path d="M18352 11867 c-12 -13 -22 -35 -22 -49 0 -32 -45 -53 -112 -52 -34 0
-48 -4 -48 -13 0 -18 91 -17 137 2 32 14 38 14 53 0 27 -24 75 -19 99 11 12
15 21 37 21 49 0 65 -84 99 -128 52z"/>
<path d="M18687 11827 c-21 -18 -24 -26 -15 -35 18 -18 35 -15 52 9 13 20 12
49 -3 49 -3 -1 -18 -11 -34 -23z"/>
<path d="M18464 11648 c-30 -31 -136 -88 -166 -88 -24 0 -48 -11 -48 -21 0
-15 46 -10 104 11 61 23 130 70 146 99 17 33 -5 32 -36 -1z"/>
<path d="M18003 11237 c-222 -88 -271 -111 -228 -107 11 1 49 2 85 1 l66 -1
98 -287 c100 -291 124 -356 126 -338 1 6 20 193 43 418 23 224 42 407 42 406
0 0 -104 -42 -232 -92z"/>
<path d="M18760 11308 c-1 -13 -72 -457 -158 -988 l-158 -965 -202 -3 -202 -2
0 37 c0 21 7 99 15 173 8 74 15 143 15 153 0 16 -16 17 -205 17 l-205 0 0 -53
c0 -46 -8 -67 -56 -152 -80 -144 -210 -412 -308 -636 l-85 -194 54 -3 c45 -2
55 -6 55 -21 0 -20 246 -4573 256 -4733 l7 -108 473 0 c261 0 474 3 474 6 0 3
-63 929 -140 2057 -77 1128 -139 2058 -138 2066 2 8 216 -898 476 -2014 260
-1117 476 -2038 478 -2047 5 -17 36 -18 468 -18 254 0 465 2 467 5 3 2 -52
330 -122 727 -318 1807 -314 1779 -298 1788 8 5 171 78 363 162 191 84 351
159 354 167 3 8 191 281 419 608 227 326 413 595 413 598 0 9 -170 104 -247
138 -274 121 -600 151 -913 86 -213 -44 -416 -141 -603 -287 -31 -25 -59 -43
-61 -41 -2 2 -29 152 -61 333 -48 275 -55 330 -44 341 8 7 185 171 394 365
209 194 397 377 418 406 56 79 79 152 85 265 3 72 0 111 -13 155 -21 72 -552
1099 -605 1169 -68 91 -165 176 -251 220 -43 22 -593 245 -604 245 -3 0 -5
-10 -5 -22z m632 -1456 c59 -103 108 -193 110 -199 4 -14 -264 -393 -275 -390
-4 1 -34 42 -66 90 l-59 89 34 111 c18 62 57 196 86 300 29 103 55 187 58 187
3 0 54 -85 112 -188z m-258 -1156 c65 -72 76 -88 56 -83 -14 3 -101 22 -195
42 -93 21 -173 40 -177 44 -4 3 28 46 70 95 l76 89 44 -49 c25 -27 81 -89 126
-138z"/>
<path d="M8074 10681 c-63 -38 -65 -128 -4 -186 l31 -30 1602 -3 c1573 -2
1603 -2 1634 17 61 38 62 129 2 187 l-30 29 -1602 3 c-1561 2 -1603 2 -1633
-17z m3246 -26 c13 -11 29 -35 37 -52 11 -28 11 -38 -1 -67 -8 -19 -23 -39
-35 -45 -14 -8 -479 -10 -1615 -9 l-1595 3 -29 28 c-17 16 -32 41 -35 55 -6
33 15 86 40 101 13 7 488 10 1614 8 1581 -2 1597 -2 1619 -22z"/>
<path d="M11875 10535 c-25 -24 -31 -49 -19 -79 3 -9 61 -62 127 -118 67 -56
138 -116 158 -133 l35 -32 -118 -124 c-147 -153 -152 -160 -143 -199 8 -36 54
-65 88 -55 12 4 83 68 159 142 l136 136 59 -49 c32 -27 104 -88 160 -136 116
-99 142 -110 181 -81 28 21 37 50 28 87 -3 11 -75 79 -161 151 -85 71 -155
132 -155 135 0 3 59 65 130 139 114 117 130 138 130 167 0 41 -32 74 -74 74
-25 0 -52 -23 -170 -139 l-141 -140 -25 21 c-14 11 -36 29 -50 41 -53 46 -206
174 -234 195 -37 29 -71 28 -101 -3z"/>
<path d="M17185 10479 c-111 -86 -120 -95 -107 -103 7 -4 142 92 211 151 3 2
0 8 -5 13 -6 6 -43 -17 -99 -61z"/>
<path d="M17235 10413 c-98 -121 -99 -123 -81 -123 13 0 165 175 174 201 2 5
-2 9 -10 9 -7 0 -44 -39 -83 -87z"/>
<path d="M8123 10284 c-60 -30 -76 -109 -35 -172 36 -55 -33 -52 1346 -52
l1276 0 32 29 c28 25 33 36 33 74 0 54 -25 94 -76 119 -32 17 -114 18 -1289
18 -1119 0 -1258 -2 -1287 -16z m2568 -19 c34 -18 69 -69 69 -102 0 -12 -12
-35 -26 -52 l-26 -31 -1274 0 c-1184 0 -1277 1 -1301 17 -38 25 -57 76 -43
119 23 67 -64 63 1318 64 1112 0 1256 -2 1283 -15z"/>
<path d="M17006 10172 c-13 -20 -62 -97 -110 -171 -47 -74 -91 -152 -97 -175
-6 -23 -9 -77 -7 -121 3 -64 10 -91 33 -133 86 -159 275 -221 436 -144 56 27
86 53 193 166 l127 135 -83 3 -83 3 -70 200 c-92 261 -82 240 -101 224 -8 -7
-37 -13 -63 -13 -37 -1 -59 6 -99 31 l-52 32 -24 -37z"/>
<path d="M8139 9862 c-27 -24 -32 -36 -33 -75 -1 -54 23 -93 75 -120 32 -16
125 -17 1626 -15 l1592 3 30 29 c25 24 31 38 31 74 0 51 -22 93 -60 116 -26
15 -165 16 -1629 16 l-1601 0 -31 -28z m3267 -26 c27 -27 34 -42 34 -74 0 -33
-6 -45 -31 -66 l-31 -26 -1581 0 c-1551 0 -1583 0 -1614 20 -66 40 -79 118
-26 160 26 20 38 20 1620 20 l1595 0 34 -34z"/>
<path d="M8312 8337 c-76 -43 -71 -163 8 -211 25 -14 103 -16 789 -16 l761 0
32 29 c29 26 33 36 33 79 0 55 -23 90 -77 118 -38 20 -1510 20 -1546 1z m1568
-42 c18 -19 33 -46 37 -68 5 -31 1 -40 -25 -67 l-30 -30 -756 0 -755 0 -34 30
c-39 34 -47 60 -35 107 17 65 -16 63 815 60 l753 -2 30 -30z"/>
<path d="M12867 8158 c-12 -13 -112 -130 -221 -260 -109 -131 -201 -238 -204
-238 -4 0 -90 83 -192 185 -159 158 -191 185 -216 185 -39 0 -74 -36 -74 -76
0 -25 34 -63 228 -257 201 -201 231 -227 259 -227 36 0 45 10 371 401 142 170
172 212 172 238 0 64 -77 95 -123 49z"/>
<path d="M8341 7924 c-31 -22 -53 -77 -45 -112 11 -45 51 -90 92 -102 25 -6
552 -10 1600 -10 1663 0 1602 -2 1643 46 39 46 32 111 -18 160 l-34 34 -1607
0 c-1470 0 -1610 -1 -1631 -16z m3258 -33 c43 -41 46 -100 5 -141 l-24 -25
-1574 -3 c-1244 -2 -1582 0 -1611 10 -75 25 -104 111 -55 163 l23 25 1603 0
1602 0 31 -29z"/>
<path d="M8390 7527 c-14 -7 -33 -29 -44 -51 -23 -48 -11 -97 34 -141 l31 -30
1597 -3 c1156 -2 1604 1 1624 9 74 30 83 132 17 195 l-30 29 -1602 2 c-1264 2
-1607 0 -1627 -10z m3238 -32 c38 -32 51 -70 40 -112 -18 -67 99 -63 -1645
-63 -1232 0 -1583 3 -1602 13 -66 34 -86 122 -36 164 l26 23 1594 0 1593 0 30
-25z"/>
<path d="M21178 6741 c-378 -9 -689 -19 -692 -22 -3 -2 312 -42 701 -87 388
-46 707 -81 710 -78 3 2 7 50 10 105 l6 101 -24 -1 c-13 -1 -333 -9 -711 -18z"/>
<path d="M8560 5989 c-48 -20 -70 -49 -70 -96 0 -24 7 -57 15 -73 33 -64 -84
-60 1674 -60 l1601 0 29 28 c56 51 46 136 -22 186 l-28 21 -1587 2 c-1043 1
-1596 -2 -1612 -8z m3195 -23 c67 -28 91 -112 45 -161 l-23 -25 -1603 0 -1602
0 -31 31 c-53 53 -38 137 29 162 8 3 721 6 1583 6 1331 1 1573 -1 1602 -13z"/>
<path d="M13110 5817 c-9 -7 -110 -124 -224 -262 -115 -137 -211 -252 -213
-254 -2 -3 -90 82 -196 187 -125 125 -200 192 -214 192 -11 0 -32 -10 -47 -21
-21 -17 -26 -28 -24 -54 3 -28 37 -68 215 -253 117 -120 226 -225 242 -231 23
-10 34 -10 54 1 13 7 135 146 271 308 210 251 246 299 246 327 0 57 -68 94
-110 60z"/>
<path d="M8566 5569 c-46 -36 -51 -124 -9 -171 44 -50 -3 -48 1338 -48 1380 0
1297 -4 1330 60 8 16 15 38 15 50 0 39 -29 89 -62 110 -33 20 -47 20 -1309 20
-1274 0 -1276 0 -1303 -21z m2612 -27 c55 -52 55 -118 -1 -152 -31 -20 -57
-20 -1288 -20 l-1256 0 -34 23 c-41 27 -61 78 -47 119 22 62 -67 58 1324 58
l1272 0 30 -28z"/>
<path d="M8622 5177 c-72 -40 -75 -136 -6 -196 l35 -31 1594 0 c989 0 1603 4
1619 10 56 21 78 110 42 165 -10 14 -31 35 -49 45 -31 20 -63 20 -1622 20
-1256 -1 -1595 -3 -1613 -13z m3217 -20 c66 -34 86 -122 36 -164 l-26 -23
-1594 0 -1594 0 -34 30 c-39 34 -50 69 -35 112 21 61 -84 57 1643 57 1235 1
1585 -2 1604 -12z"/>
</g>
</svg>
